<svg xmlns="http://www.w3.org/2000/svg" width="400" height="500" viewBox="0 0 400 500">
  <rect width="400" height="500" fill="#f0f9ff" />
  <rect x="30" y="30" width="340" height="80" rx="4" fill="#e0f2fe" />
  <rect x="50" y="50" width="200" height="16" rx="2" fill="#0ea5e9" />
  <rect x="50" y="80" width="300" height="8" rx="2" fill="#7dd3fc" />
  
  <rect x="30" y="140" width="340" height="60" rx="4" fill="#e0f2fe" />
  <rect x="50" y="150" width="150" height="12" rx="2" fill="#0ea5e9" />
  <rect x="50" y="170" width="300" height="8" rx="2" fill="#7dd3fc" />
  <rect x="50" y="185" width="250" height="8" rx="2" fill="#7dd3fc" />
  
  <rect x="30" y="230" width="340" height="100" rx="4" fill="#e0f2fe" />
  <rect x="50" y="240" width="150" height="12" rx="2" fill="#0ea5e9" />
  <rect x="50" y="260" width="300" height="8" rx="2" fill="#7dd3fc" />
  <rect x="50" y="275" width="300" height="8" rx="2" fill="#7dd3fc" />
  <rect x="50" y="290" width="300" height="8" rx="2" fill="#7dd3fc" />
  <rect x="50" y="305" width="250" height="8" rx="2" fill="#7dd3fc" />
  
  <rect x="30" y="360" width="340" height="100" rx="4" fill="#e0f2fe" />
  <rect x="50" y="370" width="150" height="12" rx="2" fill="#0ea5e9" />
  <rect x="50" y="390" width="300" height="8" rx="2" fill="#7dd3fc" />
  <rect x="50" y="405" width="300" height="8" rx="2" fill="#7dd3fc" />
  <rect x="50" y="420" width="300" height="8" rx="2" fill="#7dd3fc" />
  <rect x="50" y="435" width="250" height="8" rx="2" fill="#7dd3fc" />
</svg>